<svg id="Capa_1" data-name="Capa 1" xmlns="http://www.w3.org/2000/svg" viewBox="0 0 357.24 247.19"><defs><style>.cls-1{fill:#fefefe;}.cls-2{fill:#3fa8f4;}.cls-3{fill:#010202;}.cls-4{fill:#000101;}.cls-5{fill:#010101;}.cls-6{fill:#020202;}.cls-7{fill:#408ec8;}.cls-8{fill:#5f93b9;}</style></defs><title>logo</title><path class="cls-1" d="M211.56,288q-87,0-173.93.08c-3.5,0-4.75-.4-4.74-4.44q.22-119.2,0-238.4c0-3.65.79-4.34,4.36-4.33q174.18.17,348.36,0c3.24,0,4.51.2,4.51,4.18q-.25,119.46,0,238.9c0,3.45-.72,4.09-4.11,4.08Q298.78,287.9,211.56,288Z" transform="translate(-32.89 -40.91)"/><path class="cls-2" d="M91,230.68c-4.32-.14-8.66.48-13-.37-1.49-1.82-1.42-4-1.42-6.18q0-76.57,0-153.17c0-6.21.32-6.38,6.43-6.46,11.3-.13,22.6.36,33.9-.26C129,63.84,129,63.84,129,75.79q0,77.05,0,154.11c1.67,1.18,3.56.58,5.33.58q37.94.08,75.87,0c2.82-1.1,5.79-1.06,8.75-1s4.7-1.14,4.51-4.35c0-.49,0-1,0-1.48-.21-3.6,1.23-7.72-.76-10.67-2.14-3.16-6.49-.92-9.76-1.74a11.11,11.11,0,0,1-1.87-.63c-2-.5-4.11.33-6.06-.57l0,0c-1.72-1.91-1.64-4.29-1.64-6.61q-.06-44.41,0-88.82c0-2.32-.08-4.7,1.64-6.61l0,0c2-.91,4.1-.07,6.1-.58,2.35-1.15,4.89-.93,7.34-.81,3.63.17,5-1.36,5.07-5,.14-4.56-1.18-9.3,1.24-13.66,2.07-.86,4.28-.06,6.38-.56,4.69-.88,9.39-1.84,13.88.77Q245,147,245,205.91c0,2.72.25,4.2,3.66,4.17,20.8-.21,41.59-.18,62.38-.22,2.47-1.91,5.4-1.24,8.16-1.42,2.14-.14,4.12-.52,4.14-3.18.09-10.92.67-21.83-.33-32.73a1.68,1.68,0,0,0-.5-.84c-5-2.21-10.33-1.92-15.47-2.08-12.41-.39-24.85-.11-37.27-.14-1.64,0-3.32.31-4.92-.37-2.13-6.74-2.41-13.45.22-20.12l0,0c1.07-.63,2.26-.42,3.41-.42q39.58,0,79.19,0c1.15,0,2.34-.22,3.4.44,13.93-.45,14-.45,13.92,13.19q-.09,33.91-.25,67.85c-4.34,1-8.75.22-13.12.48-2.18.3-4.48-.63-6.58.61,0,5.49-.13,11,0,16.46.06,2.49-.57,3.51-3.3,3.5q-48.37-.2-96.75-.21c-2.64-4-1.18-8.41-1.44-12.63-.32-5.18-.77-5.57-5.8-5.77-4.36-.18-5.26,1.94-5.34,5.77-.09,4.22,1.24,8.67-1.4,12.63l-127.88,0c-2.61-3-1.48-6.69-1.54-10.07-.17-8.5-.06-8.51-8.24-9.42A9.84,9.84,0,0,1,91,230.68Z" transform="translate(-32.89 -40.91)"/><path class="cls-2" d="M245,67.16q48.38-.07,96.76-.21c2.74,0,3.35,1,3.29,3.51-.11,5.48,0,11,0,16.46,1.94,1.29,4.21.12,6.23.82,3.14,0,6.3.1,9.43-.12s4.55.59,4.33,4c-.28,4.29-.18,8.61,0,12.91.09,2.5-.6,3.51-3.31,3.47-12.24-.17-24.49-.16-36.74-.21-2-2.22-1.29-5-1.52-7.55-.31-3.56.85-7.26-1.05-10.65-5-2.06-10.4-2-15.58-2-18.81-.28-37.64-.11-56.45-.13-1.82,0-3.67.28-5.46-.29A28.46,28.46,0,0,1,245,67.16Z" transform="translate(-32.89 -40.91)"/><path class="cls-3" d="M77.22,230.06c-11.73.41-11.73.41-11.73-11.26V71.18c0-7,0-7,7.15-7,1.49,0,3,0,4.49.08.62,1.26.34,2.62.34,3.93q0,79,0,157.93A12.28,12.28,0,0,1,77.22,230.06Z" transform="translate(-32.89 -40.91)"/><path d="M205,108V210c-4.48,0-10.3,1.7-13.07-.48-2.92-2.3-.9-8.4-.91-12.83-.09-28.14,0-56.27-.15-84.41,0-3.82,1-4.94,4.66-4.53C198.68,108.12,201.87,107.93,205,108Z" transform="translate(-32.89 -40.91)"/><path d="M324.91,169.87c0,12.22,0,24.45.16,36.67,0,2.91-.95,3.69-3.67,3.51-3.45-.24-6.93-.15-10.4-.19q0-19.91-.07-39.79C315.58,169,320.24,169.44,324.91,169.87Z" transform="translate(-32.89 -40.91)"/><path class="cls-4" d="M211.23,210.1c3.49,0,7,.13,10.47,0,2.13-.06,3.44.25,3.35,2.9-.17,5-.13,10,0,15,.05,2.14-.66,2.95-2.85,2.87-3.65-.12-7.31,0-11,0-.42-.08-.61-.24-.57-.49s.12-.44.23-.44l0-19.31Z" transform="translate(-32.89 -40.91)"/><path d="M245,67.16V87a40.39,40.39,0,0,1-14,0c0-5.66.13-11.33,0-17-.07-2.41.64-3.21,3.06-3.06C237.66,67.18,241.33,67.11,245,67.16Z" transform="translate(-32.89 -40.91)"/><path class="cls-3" d="M225,88.09c0,5.48-.13,11,0,16.42.08,2.61-.74,3.53-3.38,3.38-3.47-.19-7,0-10.44,0l-.39-.54.39-19.53C215.83,87.48,220.44,87,225,88.09Z" transform="translate(-32.89 -40.91)"/><path d="M325,88.11q0,9.87,0,19.73c-4.47,0-10.25,1.68-13-.49S311.29,99,311,94.59c-.13-2.15,0-4.32,0-6.48A33.39,33.39,0,0,1,325,88.11Z" transform="translate(-32.89 -40.91)"/><path class="cls-5" d="M265,149q0,10,0,19.93c-4.58,1.07-9.19.61-13.79.26-.08-5.81,0-11.61-.29-17.41-.11-2.54.83-3.11,3.14-3C257.72,149,261.38,148.93,265,149Z" transform="translate(-32.89 -40.91)"/><path d="M231,250.84c0-5.64.09-11.28,0-16.91-.06-2.34.66-3,3.06-3.16,11-.53,11-.62,11,10.12,0,3.32,0,6.64,0,10Z" transform="translate(-32.89 -40.91)"/><path class="cls-6" d="M91,230.68c12.2-2.14,12.2-2.14,12.2,9.76q0,5.2,0,10.42c-12,.56-12,.56-12-11.28C91.14,236.61,91,233.65,91,230.68Z" transform="translate(-32.89 -40.91)"/><path class="cls-7" d="M77.22,230.06q-.06-82.91-.1-165.82h39.82c-1.44,1.25-3.19.73-4.8.74-9.33,0-18.67.28-28-.09-4.73-.19-6.18,1-6.16,6,.19,50.65.12,101.31.11,152,0,2.5-.06,5-.1,7.49l-.44.05Z" transform="translate(-32.89 -40.91)"/><path class="cls-7" d="M325,88.11H245.07L231,88a.71.71,0,0,1-.38-.71c0-.28.11-.42.2-.42L231,87h14q37.2,0,74.41,0C321.25,87,323.43,86.1,325,88.11Z" transform="translate(-32.89 -40.91)"/><path class="cls-2" d="M351.07,149l-86,0c1.14-1,2.53-.64,3.82-.64q39.19,0,78.37,0C348.55,148.3,349.94,148,351.07,149Z" transform="translate(-32.89 -40.91)"/><path class="cls-7" d="M210.88,230a1.76,1.76,0,0,1,.34.93l-78.59.11c-1.28,0-2.71.32-3.59-1.09Z" transform="translate(-32.89 -40.91)"/><path class="cls-8" d="M251.23,169.17l13.79-.26c18.25,0,36.49,0,54.74.06,1.72,0,3.68-.76,5.15.9-4.66-.18-9.33-.51-14,.2-18.21,0-36.42,0-54.63-.11C254.62,170,252.68,170.89,251.23,169.17Z" transform="translate(-32.89 -40.91)"/><path class="cls-8" d="M230.81,86.88,231,88l-6,.08-13.79-.26C217.68,85.88,224.3,87.64,230.81,86.88Z" transform="translate(-32.89 -40.91)"/><path class="cls-2" d="M351,230l13.79,0c-4.49,1.82-9.16.51-13.74.75-.33-.14-.44-.3-.35-.46S350.85,230,351,230Z" transform="translate(-32.89 -40.91)"/><path class="cls-8" d="M351.31,87.74c-2.12,0-4.39,1.19-6.23-.82C347.13,87.36,349.39,86.29,351.31,87.74Z" transform="translate(-32.89 -40.91)"/><path class="cls-2" d="M210.84,107.36a.5.5,0,0,1,.39.54l-6.17,0C206.88,106.69,208.91,107.49,210.84,107.36Z" transform="translate(-32.89 -40.91)"/><path class="cls-2" d="M211.23,210.1a.5.5,0,0,1-.38.54c-1.94-.13-4,.67-5.79-.57Z" transform="translate(-32.89 -40.91)"/><path class="cls-7" d="M351,230c0,.24,0,.48.05.72l-6,.34C346.72,229.08,349,230.35,351,230Z" transform="translate(-32.89 -40.91)"/></svg>